<svg width="21" height="26" viewBox="0 0 21 26" fill="none" xmlns="http://www.w3.org/2000/svg">
<path fill-rule="evenodd" clip-rule="evenodd" d="M17.373 13.596C17.3987 11.6042 18.4429 9.76442 20.1398 8.72118C19.0644 7.18538 17.3278 6.24656 15.4539 6.18793C13.4824 5.98098 11.571 7.36766 10.5664 7.36766C9.54228 7.36766 7.99544 6.20847 6.32976 6.24274C4.13815 6.31355 2.14451 7.5294 1.07825 9.44544C-1.19239 13.3767 0.501306 19.1543 2.67639 22.3321C3.76464 23.8881 5.03648 25.6263 6.70066 25.5646C8.32916 25.4971 8.93737 24.5262 10.9031 24.5262C12.8506 24.5262 13.4212 25.5646 15.1192 25.5255C16.8666 25.4971 17.9676 23.9625 19.0177 22.3917C19.7996 21.283 20.4013 20.0576 20.8004 18.7609C18.725 17.8831 17.3755 15.8494 17.373 13.596Z" fill="white"/>
<path fill-rule="evenodd" clip-rule="evenodd" d="M14.1657 4.09822C15.1185 2.95443 15.5879 1.48429 15.4742 0C14.0186 0.152888 12.674 0.848591 11.7083 1.94849C10.7548 3.03369 10.2717 4.45343 10.3655 5.89499C11.8407 5.91018 13.2413 5.24794 14.1657 4.09822Z" fill="white"/>
</svg>
