<svg width="50" height="50" viewBox="0 0 50 50" fill="none" xmlns="http://www.w3.org/2000/svg">
<rect width="50" height="50" rx="25" fill="#F22F2D"/>
<g clip-path="url(#clip0_2162_69)">
<path fill-rule="evenodd" clip-rule="evenodd" d="M34.8964 5L35.5047 6.40205L37.036 6.54304L35.8806 7.55053L36.2187 9.03972L34.8964 8.26033L33.5741 9.03972L33.9122 7.55053L32.7568 6.54304L34.2881 6.40205L34.8964 5Z" fill="#F29F2D"/>
<path d="M16.4043 24.7323C16.4043 26.4881 16.4511 27.7834 16.3838 29.0728C16.3517 29.705 16.2611 30.4101 15.9396 30.9382C15.3756 31.8569 14.4871 32.5143 13.2772 32.2249C12.0819 31.9384 11.9971 30.941 12.0001 29.9774C12.0117 25.8196 12.041 21.6617 12.0643 17.5038C12.0643 17.4111 12.0643 17.3156 12.076 17.2228C12.3332 14.5989 17.582 11.3934 20.1656 12.284C22.4977 13.0874 23.658 15.6721 22.9069 18.5039C22.7286 19.1754 22.4977 19.8889 22.0769 20.4311C21.3726 21.3442 21.6531 21.9033 22.4948 22.482C23.1232 22.9174 23.6784 23.4484 24.2746 23.926C25.6073 24.9908 25.7242 26.5135 24.5698 27.834C23.4534 29.1065 22.2785 29.1543 20.8231 27.9491C19.9376 27.2186 19.1047 26.4321 18.2045 25.7213C17.8042 25.4038 17.2956 25.2127 16.4072 24.7296L16.4043 24.7323ZM16.6527 20.3469C17.3391 19.7662 18.2279 19.2821 18.5319 18.5517C18.678 18.1949 18.45 17.2987 17.7779 17.0964C17.0093 16.8661 16.5007 17.2706 16.492 18.1078C16.4861 18.8298 16.6122 19.5421 16.6556 20.3469H16.6527Z" fill="white"/>
<path d="M30.2705 21.5561C31.5772 21.6627 31.7414 18.4393 31.9898 17.088C32.1915 15.9867 32.3143 14.8658 32.583 13.7785C32.8432 12.7306 33.5973 12.0957 34.7341 11.9524C35.9674 11.7951 36.9171 12.5087 36.7886 13.6914C36.5226 16.1497 36.2947 18.6331 35.7189 21.0324C35.0731 23.7322 32.9456 25.2381 30.2713 25.9909C28.7108 26.4292 27.2495 25.7943 26.6328 24.1817C26.0747 22.718 25.8204 21.1223 25.6246 19.563C25.3645 17.4869 25.3177 15.3883 25.1278 13.3038C24.9904 11.8091 26.1506 10.3258 27.6411 10.1994C28.9884 10.0842 29.9294 11.1349 29.9996 12.8121C30.0902 15.0062 29.1273 21.4629 30.2705 21.5561Z" fill="white"/>
<path d="M29.2079 34.4585C26.3 33.7674 25.546 32.9386 25.1076 30.2865C24.8855 28.9492 25.4554 28.0138 26.5338 27.303C27.808 26.4658 28.7052 26.7833 29.1699 28.188C29.2576 28.4549 29.3277 28.7301 29.4329 28.9886C29.8772 30.0617 30.3038 30.1488 31.0315 29.2414C31.6832 28.4295 32.2356 27.5446 32.8494 26.7045C33.352 26.0191 33.8546 25.328 34.41 24.6791C35.1698 23.7969 36.1138 23.3586 37.2069 24.1087C38.2384 24.8166 38.1098 25.7719 37.578 26.7299C37.3938 27.0585 37.201 27.3844 36.9934 27.6992C34.1528 32.0396 32.7888 36.9671 30.5814 41.6139C30.1598 42.5014 29.7323 43.3998 28.8689 44.4431C28.2232 45.2232 27.4047 44.9908 26.9575 44.7351C26.5513 44.502 26.1253 44.1551 26.4607 42.9541C27.1273 40.567 27.9541 38.2231 28.7257 35.8631C28.8689 35.4222 29.0267 34.9839 29.2079 34.4557V34.4585Z" fill="white"/>
<path d="M20.4723 34.6552C21.1679 33.7084 21.9628 32.7504 22.7577 31.8908C22.8133 31.8317 22.8776 31.7811 22.9506 31.7362C23.652 31.3063 24.5901 31.8711 24.5288 32.669C24.52 32.7645 24.5025 32.8544 24.4645 32.9387C23.8887 34.2618 23.123 35.512 22.3281 36.9814C23.0558 37.1274 23.6842 37.2848 24.3242 37.3774C25.2185 37.5067 26.1625 37.5236 25.8878 38.8215C25.54 40.4677 24.7041 41.2208 23.4445 40.9679C22.6905 40.8162 21.9453 40.6335 20.9546 40.4117C20.9546 41.2094 21.165 41.9427 20.9019 42.4456C20.7704 42.6984 20.5834 42.9259 20.373 43.1424C19.7329 43.7969 18.5844 43.7155 18.1285 42.9288C18.0613 42.8136 18.0174 42.6956 18.0087 42.5748C17.7047 39.1333 17.5586 35.6806 17.3774 32.2279C17.3335 31.3963 17.3482 30.5338 17.4271 29.75C17.4914 29.0982 17.769 28.5222 18.9906 28.5222C19.7885 28.5222 20.1538 29.3735 20.2093 29.9018C20.3759 31.4525 20.4694 33.0904 20.4694 34.6552C20.6623 34.7141 20.2765 34.5961 20.4694 34.6552H20.4723Z" fill="white"/>
</g>
<defs>
<clipPath id="clip0_2162_69">
<rect width="26" height="40" fill="white" transform="translate(12 5)"/>
</clipPath>
</defs>
</svg>
