<svg width="202" height="322" viewBox="0 0 202 322" fill="none" xmlns="http://www.w3.org/2000/svg">
<g clip-path="url(#clip0_2110_1147)">
<path fill-rule="evenodd" clip-rule="evenodd" d="M177.886 0L182.612 11.2865L194.509 12.4215L185.533 20.5318L188.16 32.5198L177.886 26.2457L167.613 32.5198L170.24 20.5318L161.264 12.4215L173.161 11.2865L177.886 0Z" fill="#F29F2D"/>
<path d="M34.218 158.844C34.218 172.979 34.5813 183.406 34.059 193.786C33.8091 198.875 33.1053 204.551 30.6077 208.802C26.2257 216.198 19.323 221.49 9.9228 219.16C0.636301 216.853 -0.0222886 208.825 0.000540884 201.067C0.0912472 167.597 0.318319 134.126 0.499935 100.655C0.499935 99.9086 0.499935 99.1397 0.590846 98.3934C2.58883 77.2704 43.3682 51.4662 63.4402 58.6354C81.5592 65.1033 90.5734 85.9096 84.738 108.706C83.3532 114.111 81.5592 119.856 78.2897 124.22C72.8176 131.57 74.9974 136.071 81.5366 140.73C86.4184 144.235 90.7324 148.509 95.3645 152.354C105.718 160.925 106.626 173.183 97.6577 183.813C88.9841 194.057 79.8564 194.441 68.5489 184.74C61.669 178.86 55.1979 172.528 48.2045 166.806C45.094 164.25 41.1431 162.712 34.2407 158.823L34.218 158.844ZM36.1479 123.542C41.4805 118.868 48.3864 114.97 50.7476 109.091C51.8829 106.218 50.1118 99.004 44.8896 97.3756C38.9181 95.5213 34.9673 98.778 34.899 105.517C34.8538 111.33 35.8332 117.064 36.1706 123.542H36.1479Z" fill="white"/>
<path d="M141.949 133.276C152.101 134.134 153.377 108.186 155.307 97.308C156.874 88.4428 157.828 79.4193 159.916 70.667C161.937 62.2314 167.796 57.1201 176.628 55.9669C186.21 54.7003 193.589 60.4447 192.59 69.9659C190.523 89.7544 188.753 109.747 184.279 129.06C179.262 150.794 162.732 162.916 141.956 168.977C129.831 172.505 118.479 167.394 113.687 154.412C109.351 142.63 107.375 129.784 105.854 117.232C103.833 100.519 103.47 83.6256 101.994 66.845C100.927 54.8134 109.941 42.8725 121.521 41.8549C131.988 40.9276 139.299 49.3858 139.845 62.8872C140.549 80.5499 133.067 132.526 141.949 133.276Z" fill="white"/>
<path d="M133.691 237.141C111.099 231.578 105.241 224.906 101.835 203.556C100.109 192.791 104.537 185.261 112.916 179.539C122.815 172.8 129.786 175.355 133.396 186.663C134.078 188.812 134.622 191.027 135.439 193.108C138.891 201.747 142.206 202.448 147.859 195.143C152.922 188.607 157.214 181.484 161.983 174.721C165.888 169.203 169.793 163.64 174.107 158.416C180.011 151.315 187.345 147.787 195.837 153.825C203.851 159.524 202.853 167.214 198.721 174.925C197.29 177.571 195.791 180.194 194.179 182.728C172.11 217.668 161.513 257.335 144.363 294.742C141.087 301.886 137.766 309.118 131.057 317.516C126.041 323.797 119.682 321.926 116.208 319.867C113.052 317.991 109.742 315.198 112.348 305.53C117.526 286.314 123.951 267.446 129.945 248.448C131.057 244.898 132.283 241.37 133.691 237.118V237.141Z" fill="white"/>
<path d="M65.8245 238.724C71.2283 231.103 77.4043 223.391 83.5803 216.471C84.0118 215.995 84.5112 215.588 85.0789 215.227C90.5284 211.766 97.8167 216.312 97.3399 222.735C97.2718 223.504 97.1355 224.228 96.8405 224.906C92.3674 235.558 86.4185 245.622 80.2425 257.45C85.8962 258.625 90.7779 259.892 95.7506 260.638C102.699 261.679 110.032 261.815 107.898 272.263C105.196 285.515 98.7021 291.577 88.916 289.542C83.058 288.32 77.2681 286.849 69.5709 285.064C69.5709 291.486 71.2057 297.389 69.162 301.437C68.1404 303.472 66.6873 305.304 65.0525 307.046C60.0798 312.315 51.1565 311.66 47.6145 305.326C47.0923 304.399 46.7517 303.45 46.6836 302.477C44.3222 274.773 43.1868 246.979 41.7791 219.185C41.4385 212.49 41.552 205.547 42.165 199.238C42.6646 193.99 44.8218 189.354 54.3127 189.354C60.5113 189.354 63.3495 196.207 63.7808 200.459C65.0752 212.943 65.8018 226.128 65.8018 238.724C64.3032 238.249 67.3002 239.199 65.8018 238.724H65.8245Z" fill="white"/>
</g>
<defs>
<clipPath id="clip0_2110_1147">
<rect width="202" height="322" fill="white"/>
</clipPath>
</defs>
</svg>
